<svg width="25" height="19" viewBox="0 0 25 19" fill="none" xmlns="http://www.w3.org/2000/svg">
<path d="M16.4062 9.5C15.4023 9.5 14.4316 9.05176 13.6718 8.23828C12.9331 7.44482 12.4819 6.38672 12.4023 5.25977C12.3173 4.05762 12.684 2.95215 13.4345 2.14648C14.185 1.34082 15.2343 0.90625 16.4062 0.90625C17.5698 0.90625 18.622 1.34863 19.3701 2.15234C20.1254 2.96387 20.4931 4.06738 20.4081 5.25928C20.3266 6.3877 19.8759 7.44531 19.1386 8.23779C18.3808 9.05176 17.4106 9.5 16.4062 9.5ZM22.8432 18.0938H9.96967C9.76269 18.0949 9.55822 18.0485 9.37199 17.9581C9.18576 17.8678 9.02273 17.736 8.89545 17.5728C8.76044 17.3958 8.66721 17.1906 8.62273 16.9725C8.57826 16.7545 8.58369 16.5292 8.63862 16.3135C9.04975 14.6626 10.0683 13.2935 11.5839 12.3545C12.9291 11.5215 14.6415 11.0625 16.4062 11.0625C18.2055 11.0625 19.873 11.502 21.226 12.3345C22.7451 13.2686 23.7651 14.6455 24.1743 16.3164C24.2285 16.5322 24.2334 16.7576 24.1884 16.9755C24.1434 17.1935 24.0498 17.3985 23.9145 17.5752C23.7873 17.7377 23.6247 17.8689 23.439 17.9587C23.2533 18.0486 23.0495 18.0948 22.8432 18.0938ZM7.17768 9.69531C5.45942 9.69531 3.94868 8.09766 3.80854 6.13428C3.7392 5.12842 4.05268 4.19824 4.68744 3.51611C5.31537 2.84082 6.20112 2.46875 7.17768 2.46875C8.15424 2.46875 9.03315 2.84277 9.6645 3.52197C10.3041 4.20947 10.6166 5.1377 10.5434 6.13525C10.4033 8.09815 8.89301 9.69531 7.17768 9.69531ZM10.3837 11.231C9.52485 10.811 8.4101 10.6011 7.17817 10.6011C5.73969 10.6011 4.34272 10.9761 3.24409 11.6567C1.99848 12.4297 1.16059 13.5552 0.82221 14.9141C0.772691 15.1095 0.768007 15.3136 0.80851 15.5112C0.849012 15.7087 0.933651 15.8945 1.0561 16.0547C1.17228 16.2038 1.32113 16.3244 1.49119 16.407C1.66125 16.4896 1.84799 16.5321 2.03705 16.5313H7.45698C7.54846 16.5312 7.63703 16.4991 7.70725 16.4405C7.77748 16.3819 7.8249 16.3005 7.84125 16.2105C7.84662 16.1797 7.85346 16.1489 7.86127 16.1187C8.27534 14.4556 9.24555 13.0503 10.6791 12.0259C10.7319 11.9879 10.7743 11.9373 10.8025 11.8788C10.8308 11.8202 10.844 11.7556 10.8409 11.6906C10.8379 11.6257 10.8187 11.5626 10.785 11.5069C10.7514 11.4513 10.7044 11.405 10.6484 11.3721C10.5717 11.3271 10.4838 11.2798 10.3837 11.231Z" fill="black"/>
</svg>
